<svg width="1920" height="7680" viewBox="0 0 1920 7680" fill="none" xmlns="http://www.w3.org/2000/svg">
<g filter="url(#filter0_i_168_203)">
<rect x="1" width="480" height="480" fill="#F6FFF3"/>
<rect x="1" y="960" width="480" height="480" fill="#F6FFF3"/>
<rect x="1" y="1920" width="480" height="480" fill="#F6FFF3"/>
<rect x="1" y="2880" width="480" height="480" fill="#F6FFF3"/>
<rect y="3840" width="480" height="480" fill="#F6FFF3"/>
<rect x="1" y="4800" width="480" height="480" fill="#F6FFF3"/>
<rect x="1" y="5760" width="480" height="480" fill="#F6FFF3"/>
<rect x="1" y="6720" width="480" height="480" fill="#F6FFF3"/>
<rect width="480" height="480" transform="matrix(-1 0 0 1 1921 480)" fill="#F4FFF7"/>
<rect width="480" height="480" transform="matrix(-1 0 0 1 1921 1440)" fill="#F4FFF7"/>
<rect width="480" height="480" transform="matrix(-1 0 0 1 1921 2400)" fill="#F4FFF7"/>
<rect width="480" height="480" transform="matrix(-1 0 0 1 1921 3360)" fill="#F4FFF7"/>
<rect width="480" height="480" transform="matrix(-1 0 0 1 1920 4320)" fill="#F4FFF7"/>
<rect width="480" height="480" transform="matrix(-1 0 0 1 1921 5280)" fill="#F4FFF7"/>
<rect width="480" height="480" transform="matrix(-1 0 0 1 1921 6240)" fill="#F4FFF7"/>
<rect width="480" height="480" transform="matrix(-1 0 0 1 1921 7200)" fill="#F4FFF7"/>
<rect x="481" width="480" height="480" fill="#F7FFE1"/>
<rect x="481" y="960" width="480" height="480" fill="#F7FFE1"/>
<rect x="481" y="1920" width="480" height="480" fill="#F7FFE1"/>
<rect x="481" y="2880" width="480" height="480" fill="#F7FFE1"/>
<rect x="480" y="3840" width="480" height="480" fill="#F7FFE1"/>
<rect x="481" y="4800" width="480" height="480" fill="#F7FFE1"/>
<rect x="481" y="5760" width="480" height="480" fill="#F7FFE1"/>
<rect x="481" y="6720" width="480" height="480" fill="#F7FFE1"/>
<rect width="481" height="480" transform="matrix(-1 0 0 1 1441 480)" fill="#F4FCFF"/>
<rect width="481" height="480" transform="matrix(-1 0 0 1 1441 1440)" fill="#F4FCFF"/>
<rect width="481" height="480" transform="matrix(-1 0 0 1 1441 2400)" fill="#F4FCFF"/>
<rect width="481" height="480" transform="matrix(-1 0 0 1 1441 3360)" fill="#F4FCFF"/>
<rect width="481" height="480" transform="matrix(-1 0 0 1 1440 4320)" fill="#F4FCFF"/>
<rect width="481" height="480" transform="matrix(-1 0 0 1 1441 5280)" fill="#F4FCFF"/>
<rect width="481" height="480" transform="matrix(-1 0 0 1 1441 6240)" fill="#F4FCFF"/>
<rect width="481" height="480" transform="matrix(-1 0 0 1 1441 7200)" fill="#F4FCFF"/>
<rect x="961" width="480" height="480" fill="#FFF8F8"/>
<rect x="961" y="960" width="480" height="480" fill="#FFF8F8"/>
<rect x="961" y="1920" width="480" height="480" fill="#FFF8F8"/>
<rect x="961" y="2880" width="480" height="480" fill="#FFF8F8"/>
<rect x="960" y="3840" width="480" height="480" fill="#FFF8F8"/>
<rect x="961" y="4800" width="480" height="480" fill="#FFF8F8"/>
<rect x="961" y="5760" width="480" height="480" fill="#FFF8F8"/>
<rect x="961" y="6720" width="480" height="480" fill="#FFF8F8"/>
<rect width="479" height="480" transform="matrix(-1 0 0 1 960 480)" fill="#ECFFD3"/>
<rect width="479" height="480" transform="matrix(-1 0 0 1 960 1440)" fill="#ECFFD3"/>
<rect width="479" height="480" transform="matrix(-1 0 0 1 960 2400)" fill="#ECFFD3"/>
<rect width="479" height="480" transform="matrix(-1 0 0 1 960 3360)" fill="#ECFFD3"/>
<rect width="479" height="480" transform="matrix(-1 0 0 1 959 4320)" fill="#ECFFD3"/>
<rect width="479" height="480" transform="matrix(-1 0 0 1 960 5280)" fill="#ECFFD3"/>
<rect width="479" height="480" transform="matrix(-1 0 0 1 960 6240)" fill="#ECFFD3"/>
<rect width="479" height="480" transform="matrix(-1 0 0 1 960 7200)" fill="#ECFFD3"/>
<rect x="1441" width="480" height="480" fill="#F7FFFD"/>
<rect x="1441" y="960" width="480" height="480" fill="#F7FFFD"/>
<rect x="1441" y="1920" width="480" height="480" fill="#F7FFFD"/>
<rect x="1441" y="2880" width="480" height="480" fill="#F7FFFD"/>
<rect x="1440" y="3840" width="480" height="480" fill="#F7FFFD"/>
<rect x="1441" y="4800" width="480" height="480" fill="#F7FFFD"/>
<rect x="1441" y="5760" width="480" height="480" fill="#F7FFFD"/>
<rect x="1441" y="6720" width="480" height="480" fill="#F7FFFD"/>
<rect width="480" height="480" transform="matrix(-1 0 0 1 481 480)" fill="#FFF8E7"/>
<rect width="480" height="480" transform="matrix(-1 0 0 1 481 1440)" fill="#FFF8E7"/>
<rect width="480" height="480" transform="matrix(-1 0 0 1 481 2400)" fill="#FFF8E7"/>
<rect width="480" height="480" transform="matrix(-1 0 0 1 481 3360)" fill="#FFF8E7"/>
<rect width="480" height="480" transform="matrix(-1 0 0 1 480 4320)" fill="#FFF8E7"/>
<rect width="480" height="480" transform="matrix(-1 0 0 1 481 5280)" fill="#FFF8E7"/>
<rect width="480" height="480" transform="matrix(-1 0 0 1 481 6240)" fill="#FFF8E7"/>
<rect width="480" height="480" transform="matrix(-1 0 0 1 481 7200)" fill="#FFF8E7"/>
</g>
<defs>
<filter id="filter0_i_168_203" x="0" y="0" width="1921" height="7680" filterUnits="userSpaceOnUse" color-interpolation-filters="sRGB">
<feFlood flood-opacity="0" result="BackgroundImageFix"/>
<feBlend mode="normal" in="SourceGraphic" in2="BackgroundImageFix" result="shape"/>
<feColorMatrix in="SourceAlpha" type="matrix" values="0 0 0 0 0 0 0 0 0 0 0 0 0 0 0 0 0 0 127 0" result="hardAlpha"/>
<feOffset/>
<feGaussianBlur stdDeviation="25"/>
<feComposite in2="hardAlpha" operator="arithmetic" k2="-1" k3="1"/>
<feColorMatrix type="matrix" values="0 0 0 0 0 0 0 0 0 0 0 0 0 0 0 0 0 0 0.25 0"/>
<feBlend mode="normal" in2="shape" result="effect1_innerShadow_168_203"/>
</filter>
</defs>
</svg>
