<svg width="98" height="32" viewBox="0 0 98 32" fill="none" xmlns="http://www.w3.org/2000/svg">
<g filter="url(#filter0_d_2_7)">
<path d="M17.7765 23.288C17.0298 23.288 16.5712 22.904 16.4005 22.136L15.6005 18.296C15.4298 17.528 14.9712 17.144 14.2245 17.144H9.3925C8.64583 17.144 8.18717 17.528 8.0165 18.296L7.2165 22.136C7.04583 22.904 6.58717 23.288 5.8405 23.288H5.4565C5.0725 23.288 4.77383 23.192 4.5605 23C4.3685 22.808 4.2725 22.552 4.2725 22.232C4.2725 22.0827 4.28317 21.9653 4.3045 21.88L8.3685 1.464C8.53917 0.695999 8.99783 0.311998 9.7445 0.311998H13.7765C14.5232 0.311998 14.9818 0.695999 15.1525 1.464L19.3125 21.88C19.3338 21.9653 19.3445 22.0933 19.3445 22.264C19.3445 22.9467 18.9498 23.288 18.1605 23.288H17.7765ZM11.7605 3.224C11.2912 3.224 10.9712 3.608 10.8005 4.376L9.1045 12.856C9.08317 12.9413 9.0725 13.0587 9.0725 13.208C9.0725 13.528 9.1685 13.784 9.3605 13.976C9.57383 14.168 9.8725 14.264 10.2565 14.264H13.3285C14.1178 14.264 14.5125 13.9227 14.5125 13.24C14.5125 13.0693 14.5018 12.9413 14.4805 12.856L12.7205 4.376C12.5498 3.608 12.2298 3.224 11.7605 3.224Z" fill="#FF0000"/>
<path d="M21.9125 1.56C21.9125 0.706666 22.3392 0.279999 23.1925 0.279999H23.5125C24.3658 0.279999 24.7925 0.706666 24.7925 1.56V22.008C24.7925 22.8613 24.3658 23.288 23.5125 23.288H23.1925C22.3392 23.288 21.9125 22.8613 21.9125 22.008V1.56ZM28.8063 3.256C29.1263 2.936 29.4569 2.776 29.7983 2.776C30.1396 2.776 30.4703 2.936 30.7903 3.256C31.1103 3.576 31.2703 3.90667 31.2703 4.248C31.2703 4.58933 31.1103 4.92 30.7903 5.24C30.4703 5.56 30.1396 5.72 29.7983 5.72C29.4569 5.72 29.1263 5.56 28.8063 5.24C28.4863 4.92 28.3263 4.58933 28.3263 4.248C28.3263 3.90667 28.4863 3.576 28.8063 3.256ZM28.3583 8.76C28.3583 7.90667 28.7849 7.48 29.6383 7.48H29.9583C30.8116 7.48 31.2383 7.90667 31.2383 8.76V22.008C31.2383 22.8613 30.8116 23.288 29.9583 23.288H29.6383C28.7849 23.288 28.3583 22.8613 28.3583 22.008V8.76ZM38.0195 22.04C38.0195 22.8933 37.5928 23.32 36.7395 23.32H36.3875C35.5342 23.32 35.1075 22.8933 35.1075 22.04V10.744C35.1075 10.1253 35.3208 9.60267 35.7475 9.176L36.8035 8.12C37.2302 7.69333 37.7528 7.48 38.3715 7.48H42.3395C42.9582 7.48 43.4808 7.704 43.9075 8.152L44.9315 9.176C45.3582 9.60267 45.5715 10.1253 45.5715 10.744V22.04C45.5715 22.8933 45.1448 23.32 44.2915 23.32H43.9715C43.1182 23.32 42.6915 22.8933 42.6915 22.04V11.672C42.6915 10.8187 42.2648 10.392 41.4115 10.392H39.2995C38.4462 10.392 38.0195 10.8187 38.0195 11.672V22.04ZM52.364 23.256C51.7453 23.256 51.2227 23.0427 50.796 22.616L49.74 21.56C49.3133 21.1333 49.1 20.6107 49.1 19.992V16.28C49.1 15.96 49.1533 15.6827 49.26 15.448C49.3667 15.192 49.5373 14.9467 49.772 14.712L50.796 13.688C51.2227 13.2613 51.7453 13.048 52.364 13.048H55.404C56.2573 13.048 56.684 12.6213 56.684 11.768V11.672C56.684 10.8187 56.2573 10.392 55.404 10.392H50.476C49.6227 10.392 49.196 9.96533 49.196 9.112V8.76C49.196 7.90667 49.6227 7.48 50.476 7.48H56.332C56.9507 7.48 57.4733 7.69333 57.9 8.12L58.956 9.176C59.3827 9.60267 59.596 10.1253 59.596 10.744V21.976C59.596 22.8293 59.1693 23.256 58.316 23.256H52.364ZM56.684 16.952C56.684 16.0987 56.2573 15.672 55.404 15.672H53.292C52.4387 15.672 52.012 16.0987 52.012 16.952V19.352C52.012 20.2053 52.4387 20.632 53.292 20.632H55.404C56.2573 20.632 56.684 20.2053 56.684 19.352V16.952ZM70.9713 12.472C70.9713 13.3253 70.5446 13.752 69.6913 13.752H63.7713C62.9179 13.752 62.4913 13.3253 62.4913 12.472V11.992C62.4913 11.1387 62.9179 10.712 63.7713 10.712H69.6913C70.5446 10.712 70.9713 11.1387 70.9713 11.992V12.472ZM72.5775 21.656C72.5775 21.2507 72.6735 20.9413 72.8655 20.728C73.0575 20.4933 73.3348 20.376 73.6975 20.376C74.0602 20.376 74.3375 20.2693 74.5295 20.056C74.7215 19.8213 74.8175 19.5013 74.8175 19.096V4.472C74.8175 4.06667 74.7215 3.75733 74.5295 3.544C74.3375 3.30933 74.0602 3.192 73.6975 3.192C73.3348 3.192 73.0575 3.08533 72.8655 2.872C72.6735 2.63733 72.5775 2.31733 72.5775 1.912V1.56C72.5775 0.706666 73.0042 0.279999 73.8575 0.279999H78.7215C79.5748 0.279999 80.0015 0.706666 80.0015 1.56V1.912C80.0015 2.76533 79.6282 3.192 78.8815 3.192C78.5188 3.192 78.2308 3.30933 78.0175 3.544C77.8255 3.75733 77.7295 4.06667 77.7295 4.472V19.096C77.7295 19.5013 77.8255 19.8213 78.0175 20.056C78.2308 20.2693 78.5188 20.376 78.8815 20.376C79.2442 20.376 79.5215 20.4933 79.7135 20.728C79.9055 20.9413 80.0015 21.2507 80.0015 21.656V22.008C80.0015 22.8613 79.5748 23.288 78.7215 23.288H73.8575C73.0042 23.288 72.5775 22.8613 72.5775 22.008V21.656ZM80.3362 1.56C80.3362 0.706666 80.7629 0.279999 81.6163 0.279999H91.7283C92.5816 0.279999 93.0083 0.706666 93.0083 1.56V1.912C93.0083 2.76533 92.5816 3.192 91.7283 3.192H89.4243C88.5709 3.192 88.1443 3.61867 88.1443 4.472V21.976C88.1443 22.8293 87.7176 23.256 86.8643 23.256H86.5123C85.6589 23.256 85.2323 22.8293 85.2323 21.976V4.472C85.2323 3.61867 84.8056 3.192 83.9523 3.192H81.6163C80.7629 3.192 80.3362 2.76533 80.3362 1.912V1.56Z" fill="white"/>
</g>
<defs>
<filter id="filter0_d_2_7" x="0.272461" y="0.279999" width="96.7358" height="31.04" filterUnits="userSpaceOnUse" color-interpolation-filters="sRGB">
<feFlood flood-opacity="0" result="BackgroundImageFix"/>
<feColorMatrix in="SourceAlpha" type="matrix" values="0 0 0 0 0 0 0 0 0 0 0 0 0 0 0 0 0 0 127 0" result="hardAlpha"/>
<feOffset dy="4"/>
<feGaussianBlur stdDeviation="2"/>
<feComposite in2="hardAlpha" operator="out"/>
<feColorMatrix type="matrix" values="0 0 0 0 0 0 0 0 0 0 0 0 0 0 0 0 0 0 0.25 0"/>
<feBlend mode="normal" in2="BackgroundImageFix" result="effect1_dropShadow_2_7"/>
<feBlend mode="normal" in="SourceGraphic" in2="effect1_dropShadow_2_7" result="shape"/>
</filter>
</defs>
</svg>
